<svg width="286" height="268" viewBox="0 0 286 268" fill="none" xmlns="http://www.w3.org/2000/svg">
<path d="M79.2734 262H76.0508L71.7617 254.992L67.4375 262H64.4375L70.1211 253.117L64.8008 244.867H67.918L71.8789 251.348L75.8398 244.867H78.8633L73.5078 253.164L79.2734 262ZM86.3984 256.738V254.395H92.4219V256.738H86.3984ZM114.406 262H111.184L106.895 254.992L102.57 262H99.5703L105.254 253.117L99.9336 244.867H103.051L107.012 251.348L110.973 244.867H113.996L108.641 253.164L114.406 262ZM114.453 249.039H117.453L120.09 256.387C120.488 257.434 120.754 258.418 120.887 259.34H120.98C121.051 258.91 121.18 258.391 121.367 257.781C121.555 257.164 122.547 254.25 124.344 249.039H127.32L121.777 263.723C120.77 266.418 119.09 267.766 116.738 267.766C116.129 267.766 115.535 267.699 114.957 267.566V265.387C115.371 265.48 115.844 265.527 116.375 265.527C117.703 265.527 118.637 264.758 119.176 263.219L119.656 262L114.453 249.039ZM141.723 266.582H139.156V262H130.273V266.582H127.73V259.867H128.785C129.707 258.547 130.438 256.953 130.977 255.086C131.523 253.211 131.848 251.195 131.949 249.039H139.824V259.867H141.723V266.582ZM137.117 259.867V251.148H134.328C134.18 252.758 133.867 254.344 133.391 255.906C132.922 257.469 132.348 258.789 131.668 259.867H137.117ZM155.621 255.496C155.621 257.613 155.078 259.266 153.992 260.453C152.906 261.641 151.395 262.234 149.457 262.234C148.246 262.234 147.176 261.961 146.246 261.414C145.316 260.867 144.602 260.082 144.102 259.059C143.602 258.035 143.352 256.848 143.352 255.496C143.352 253.395 143.891 251.754 144.969 250.574C146.047 249.395 147.566 248.805 149.527 248.805C151.402 248.805 152.887 249.41 153.98 250.621C155.074 251.824 155.621 253.449 155.621 255.496ZM146.188 255.496C146.188 258.488 147.293 259.984 149.504 259.984C151.691 259.984 152.785 258.488 152.785 255.496C152.785 252.535 151.684 251.055 149.48 251.055C148.324 251.055 147.484 251.438 146.961 252.203C146.445 252.969 146.188 254.066 146.188 255.496ZM165.184 255.332V249.039H167.75V255.332L172.742 249.039H175.648L170.551 255.309L176.105 262H173.07L167.75 255.426V262H165.184V255.426L159.875 262H156.852L162.395 255.309L157.309 249.039H160.215L165.184 255.332ZM180.863 249.039V254.242H186.969V249.039H189.723V262H186.969V256.41H180.863V262H178.109V249.039H180.863ZM196.309 249.039V255.684C196.309 256.457 196.246 257.594 196.121 259.094L202.625 249.039H205.988V262H203.34V255.473C203.34 255.113 203.359 254.531 203.398 253.727C203.445 252.922 203.484 252.336 203.516 251.969L197.035 262H193.672V249.039H196.309ZM217.953 249.039H220.977L215.621 255.285L221.434 262H218.27L212.668 255.426V262H209.914V249.039H212.668V255.332L217.953 249.039Z" fill="#666666"/>
<path d="M65.235 46.8045C71.3073 46.8045 76.2483 41.8634 76.2483 35.7912C76.2483 29.7189 71.3073 24.7778 65.235 24.7778C59.1627 24.7778 54.2217 29.7189 54.2217 35.7912C54.2217 41.8634 59.1627 46.8045 65.235 46.8045ZM65.235 31.0712C67.8381 31.0712 69.955 33.1881 69.955 35.7912C69.955 38.3942 67.8381 40.5112 65.235 40.5112C62.6319 40.5112 60.515 38.3942 60.515 35.7912C60.515 33.1881 62.6327 31.0712 65.235 31.0712Z" fill="#B6B6B6"/>
<path d="M208.408 89.2843C208.408 95.3566 213.349 100.298 219.422 100.298C225.494 100.298 230.435 95.3566 230.435 89.2843C230.435 83.212 225.494 78.271 219.422 78.271C213.349 78.271 208.408 83.212 208.408 89.2843ZM219.422 84.5643C222.025 84.5643 224.142 86.6812 224.142 89.2843C224.142 91.8874 222.025 94.0043 219.422 94.0043C216.818 94.0043 214.702 91.8874 214.702 89.2843C214.702 86.6812 216.819 84.5643 219.422 84.5643Z" fill="#B6B6B6"/>
<path d="M232.009 55.0871C233.977 55.0871 235.572 53.4919 235.572 51.5242C235.572 49.5566 233.977 47.9614 232.009 47.9614C230.041 47.9614 228.446 49.5566 228.446 51.5242C228.446 53.4919 230.041 55.0871 232.009 55.0871Z" fill="#B6B6B6"/>
<path d="M80.9691 67.674C82.9368 67.674 84.5319 66.0788 84.5319 64.1112C84.5319 62.1435 82.9368 60.5483 80.9691 60.5483C79.0014 60.5483 77.4062 62.1435 77.4062 64.1112C77.4062 66.0788 79.0014 67.674 80.9691 67.674Z" fill="#B6B6B6"/>
<path d="M197.257 40.6496C197.871 41.264 198.676 41.5716 199.481 41.5716C200.286 41.5716 201.092 41.264 201.706 40.6496L205.262 37.0939L208.817 40.6496C209.432 41.264 210.237 41.5716 211.042 41.5716C211.847 41.5716 212.652 41.264 213.267 40.6496C214.496 39.4208 214.496 37.429 213.267 36.2002L209.711 32.6445L213.267 29.0887C214.496 27.86 214.496 25.8681 213.267 24.6394C212.038 23.4106 210.046 23.4106 208.817 24.6394L205.262 28.1951L201.706 24.6394C200.477 23.4106 198.485 23.4106 197.257 24.6394C196.028 25.8681 196.028 27.86 197.257 29.0887L200.812 32.6445L197.257 36.2002C196.028 37.429 196.028 39.42 197.257 40.6496Z" fill="#B6B6B6"/>
<path d="M52.5104 106.729C53.1248 107.344 53.9304 107.651 54.7351 107.651C55.5399 107.651 56.3454 107.344 56.9598 106.729L60.5156 103.173L64.0713 106.729C64.6857 107.344 65.4912 107.651 66.296 107.651C67.1008 107.651 67.9063 107.344 68.5207 106.729C69.7495 105.5 69.7495 103.509 68.5207 102.28L64.965 98.7241L68.5207 95.1683C69.7495 93.9396 69.7495 91.9477 68.5207 90.7189C67.2919 89.4902 65.3001 89.4902 64.0713 90.7189L60.5156 94.2747L56.9598 90.7189C55.7311 89.4902 53.7392 89.4902 52.5104 90.7189C51.2817 91.9477 51.2817 93.9396 52.5104 95.1683L56.0662 98.7241L52.5104 102.28C51.2817 103.509 51.2817 105.5 52.5104 106.729Z" fill="#B6B6B6"/>
<path d="M159.635 108.164C161.373 108.164 162.782 106.756 162.782 105.018C162.782 103.28 161.373 101.871 159.635 101.871C157.897 101.871 156.488 103.28 156.488 105.018C156.488 106.756 157.897 108.164 159.635 108.164Z" fill="#B6B6B6"/>
<path d="M128.169 108.164C129.907 108.164 131.316 106.756 131.316 105.018C131.316 103.28 129.907 101.871 128.169 101.871C126.431 101.871 125.022 103.28 125.022 105.018C125.022 106.756 126.431 108.164 128.169 108.164Z" fill="#B6B6B6"/>
<path d="M230.749 155.995C226.757 152.998 226.422 148.159 226.035 142.557C225.429 133.823 224.677 122.958 207.226 120.776C198.333 119.673 189.516 122.521 182.388 128.811C176.463 134.044 172.278 141.182 170.329 148.901L158.062 143.328V140.789C158.062 140.76 158.047 140.736 158.046 140.706C170.089 134.952 179.245 124.231 182.96 111.305C185.052 111.36 186.979 110.797 188.881 109.612C191.8 107.79 193.776 104.827 194.163 101.681C194.553 98.5278 193.576 95.3662 191.49 93.003C190.055 91.3833 188.193 90.2371 186.146 89.6754C186.14 89.1224 186.118 87.1117 186.111 86.9024C186.268 86.5248 186.383 72.8769 186.383 72.8769C187.112 72.7904 187.821 72.6582 188.491 72.4262C190.851 71.612 192.652 69.9403 193.838 67.4607H193.842C197.935 58.9065 190.62 46.7879 176.723 37.4581C177.697 34.9926 177.798 32.3038 176.91 29.7833C175.93 27.0088 173.933 24.7809 171.281 23.5112C168.629 22.2361 165.642 22.0764 162.861 23.0534C160.337 23.9447 158.305 25.7084 156.996 28.0102C141.016 23.0298 126.988 24.9257 122.889 33.4799C121.966 35.4072 121.767 37.4211 122.215 39.3712C108.748 45.5285 101.368 57.1696 101.425 72.3617L101.465 77.5576C101.496 80.4982 101.573 86.0072 101.632 86.2534C101.631 86.299 101.664 88.8998 101.664 89.6683C99.7712 90.1813 98.0468 91.1984 96.6457 92.649C94.5532 94.8218 93.4589 97.6798 93.5667 100.697C93.6831 104.064 95.5947 107.316 98.6738 109.393C100.619 110.705 102.57 111.347 104.69 111.313C107.982 123.338 115.963 133.428 126.612 139.555C126.611 139.582 126.597 139.604 126.597 139.63V143.327L101.519 154.724C89.9929 159.963 82.5439 171.671 82.5439 184.547V210.43C82.5439 212.169 83.9513 213.576 85.6906 213.576H198.971C200.71 213.576 202.117 212.169 202.117 210.43V195.941C203.667 196.137 205.236 196.27 206.837 196.27C220.736 196.27 235.474 187.275 239.023 176.63C240.459 172.318 241.295 163.904 230.749 155.995ZM164.951 28.9912C166.144 28.5734 167.422 28.6466 168.556 29.1847C170.448 30.0933 171.439 32.1016 171.174 34.0746C169.886 33.3658 168.566 32.6759 167.197 32.0206C165.842 31.3716 164.489 30.7793 163.142 30.2247C163.65 29.6905 164.237 29.2421 164.951 28.9912ZM128.562 36.197C129.978 33.2439 134.4 31.5258 140.602 31.5258C147.082 31.5258 155.508 33.4004 164.481 37.6964C182.039 46.1098 191.052 58.7028 188.161 64.7444C187.584 65.9519 186.935 66.3051 186.434 66.4806C182.772 67.7345 174.084 63.4354 164.865 58.8876C162.601 57.769 160.226 56.5953 157.742 55.4059C155.305 54.2384 152.89 53.1167 150.548 52.0287C140.386 47.3056 129.882 42.4196 128.392 38.2683C128.147 37.5824 128.196 36.9617 128.562 36.197ZM125.413 44.8205C129.827 49.3273 138.065 53.1662 147.893 57.7352C150.216 58.8137 152.61 59.926 155.025 61.0848C157.483 62.2617 159.837 63.4236 162.081 64.5296C169.222 68.057 175.154 70.9779 180.088 72.2673V84.1656C170.673 91.2456 160.025 93.9281 149.961 91.7278C140.939 89.758 133.457 84.0397 129.437 76.0409C128.979 75.1315 128.109 74.4983 127.105 74.3449C126.094 74.182 125.077 74.5289 124.369 75.2605C120.31 79.4393 114.383 81.9504 107.791 82.3618C107.788 80.8435 107.77 79.1907 107.754 77.497L107.714 72.3373C107.655 56.1209 117.117 48.4431 125.413 44.8205ZM110.146 107.089C109.965 106.207 109.414 105.445 108.634 104.993C107.853 104.545 106.916 104.458 106.059 104.739C104.842 105.153 103.717 105.209 102.193 104.176C100.799 103.236 99.901 101.816 99.8514 100.473C99.805 99.1768 100.275 97.9504 101.173 97.019C102.071 96.0907 103.275 95.5778 104.568 95.5778C105.419 95.5778 106.267 95.2151 106.861 94.607C107.735 93.7087 108.004 92.9377 107.95 88.6433C114.682 88.2657 120.927 86.0701 125.821 82.3523C130.968 90.2222 139.083 95.7965 148.618 97.8764C151.372 98.479 154.153 98.7772 156.94 98.7772C164.766 98.7748 172.615 96.392 179.921 91.8553C180.04 93.2933 180.327 93.9816 180.964 94.6251C181.554 95.2246 182.392 95.5778 183.235 95.5778C184.587 95.5778 185.877 96.1583 186.772 97.1724C187.681 98.199 188.087 99.5261 187.918 100.912C187.758 102.191 186.873 103.444 185.552 104.271C184.224 105.098 183.1 105.224 181.677 104.723C180.829 104.412 179.885 104.502 179.099 104.938C178.309 105.377 177.746 106.136 177.553 107.018C174.489 121.086 164.091 132.579 150.413 137.01L149.024 137.465C145.111 138.734 141.114 138.78 137.469 137.603C123.556 133.126 113.086 121.433 110.146 107.089ZM135.54 143.595C137.924 144.364 140.405 144.744 142.921 144.744C145.592 144.744 148.299 144.314 150.967 143.45L151.769 143.188V144.351C151.769 149.556 147.534 153.791 142.329 153.791C137.124 153.791 132.889 149.556 132.889 144.351V142.552C133.773 142.898 134.628 143.302 135.54 143.595ZM195.822 207.284H176.942V191.551C176.942 189.812 175.534 188.404 173.795 188.404C172.056 188.404 170.648 189.812 170.648 191.551V207.284H110.862V191.551C110.862 189.812 109.454 188.404 107.715 188.404C105.976 188.404 104.568 189.812 104.568 191.551V207.284H88.8349V184.548C88.8349 174.134 94.8364 164.675 104.123 160.453L127.618 149.776C129.838 155.774 135.568 160.084 142.328 160.084C149.09 160.084 154.818 155.774 157.039 149.775L169.25 155.324C169.161 156.384 169.075 157.445 169.075 158.511C169.075 175.502 180.357 189.898 195.822 194.623V207.284ZM233.05 174.641C230.374 182.667 217.879 189.978 206.835 189.978C189.485 189.978 175.368 175.861 175.368 158.511C175.368 149.05 179.55 139.711 186.554 133.531C191.508 129.158 197.429 126.835 203.488 126.835C204.472 126.835 205.458 126.897 206.445 127.019C218.758 128.559 219.176 134.612 219.757 142.989C220.187 149.231 220.676 156.305 226.975 161.028C232.608 165.253 234.651 169.835 233.05 174.641Z" fill="#B6B6B6"/>
<path d="M219.422 161.787C214.288 161.787 210.111 165.963 210.111 171.098C210.111 176.229 214.288 180.405 219.422 180.405C224.557 180.405 228.733 176.229 228.733 171.098C228.733 165.963 224.558 161.787 219.422 161.787ZM219.422 174.112C217.76 174.112 216.405 172.76 216.405 171.098C216.405 169.435 217.76 168.08 219.422 168.08C221.085 168.08 222.44 169.435 222.44 171.098C222.44 172.76 221.085 174.112 219.422 174.112Z" fill="#B6B6B6"/>
<path d="M200.542 131.396C196.001 131.396 192.307 135.089 192.307 139.631C192.307 144.173 196 147.867 200.542 147.867C205.084 147.867 208.778 144.173 208.778 139.631C208.778 135.089 205.084 131.396 200.542 131.396ZM200.542 141.573C199.473 141.573 198.6 140.701 198.6 139.631C198.6 138.561 199.472 137.689 200.542 137.689C201.612 137.689 202.485 138.561 202.485 139.631C202.485 140.701 201.612 141.573 200.542 141.573Z" fill="#B6B6B6"/>
<path d="M194.618 156.938C194.618 152.396 190.924 148.702 186.382 148.702C181.84 148.702 178.146 152.396 178.146 156.938C178.146 161.48 181.84 165.173 186.382 165.173C190.924 165.173 194.618 161.48 194.618 156.938ZM186.382 158.88C185.313 158.88 184.44 158.008 184.44 156.938C184.44 155.868 185.312 154.995 186.382 154.995C187.452 154.995 188.324 155.868 188.324 156.938C188.324 158.008 187.452 158.88 186.382 158.88Z" fill="#B6B6B6"/>
<path d="M197.396 169.155C192.854 169.155 189.16 172.849 189.16 177.391C189.16 181.933 192.854 185.626 197.396 185.626C201.938 185.626 205.631 181.933 205.631 177.391C205.631 172.849 201.938 169.155 197.396 169.155ZM197.396 179.333C196.327 179.333 195.453 178.461 195.453 177.391C195.453 176.321 196.326 175.449 197.396 175.449C198.466 175.449 199.338 176.321 199.338 177.391C199.338 178.461 198.466 179.333 197.396 179.333Z" fill="#B6B6B6"/>
<path d="M73.8033 136.131C73.2196 135.554 72.6265 134.967 72.0491 134.361C72.0483 134.36 72.0475 134.36 72.0475 134.359C72.0467 134.359 72.0467 134.359 72.0467 134.358C69.6348 131.835 68.0276 129.536 68.0276 126.528C68.0276 122.53 65.9532 121.433 64.715 121.136C59.8077 119.894 54.0611 129.525 51.0742 135.348C49.2798 138.847 47.1377 143.746 47.1377 147.209C47.1377 153.315 50.5054 158.599 55.4449 161.459L53.6245 201.882C53.4767 205.148 54.6205 208.308 56.7618 210.545C58.6301 212.502 61.0821 213.578 63.6632 213.578C66.2443 213.578 68.6963 212.502 70.5646 210.545C72.7067 208.308 73.8497 205.149 73.7019 201.882L71.8815 161.459C76.821 158.598 80.1895 153.314 80.1895 147.209C80.1887 142.455 76.7958 139.094 73.8033 136.131ZM62.0647 129.622C62.6484 132.256 63.9299 134.447 65.4143 136.333C64.302 137.16 63.2046 137.596 62.1323 137.639C60.688 137.633 59.121 136.966 57.8427 136.041C59.3664 133.334 60.8635 131.15 62.0647 129.622ZM67.4148 202.165C67.4856 203.722 66.9751 205.195 66.0169 206.196C65.5433 206.694 64.748 207.284 63.6632 207.284C62.5784 207.284 61.7823 206.694 61.3095 206.196C60.3505 205.195 59.8408 203.722 59.9116 202.165L61.6509 163.531C62.318 163.613 62.9741 163.735 63.6632 163.735C64.3523 163.735 65.0084 163.614 65.6755 163.531L67.4148 202.165ZM63.6624 157.442C58.0204 157.442 53.4295 152.851 53.4295 147.209C53.4295 146.317 53.8967 144.42 55.05 141.686C57.3156 143.136 59.6205 143.936 61.9475 143.936C62.0891 143.936 62.2299 143.932 62.3746 143.926C64.9518 143.827 67.4093 142.815 69.7166 140.941C71.9909 143.2 73.8954 145.181 73.8954 147.208C73.8954 152.851 69.3044 157.442 63.6624 157.442Z" fill="#B6B6B6"/>
</svg>
