<svg width="290" height="181" fill="none" xmlns="http://www.w3.org/2000/svg"><path fill="#ECECEC" d="M0 0h290v181H0z"/><path d="M97.205 153h-2.417l-3.217-5.256L88.328 153h-2.25l4.263-6.662-3.99-6.188h2.338l2.97 4.861 2.97-4.861h2.268l-4.016 6.223L97.205 153zm5.344-3.946v-1.758h4.517v1.758h-4.517zM123.555 153h-2.417l-3.217-5.256-3.243 5.256h-2.25l4.262-6.662-3.99-6.188h2.338l2.971 4.861 2.97-4.861h2.268l-4.017 6.223 4.325 6.627zm.035-9.721h2.25l1.977 5.511c.299.785.498 1.523.598 2.215h.07c.053-.322.15-.712.29-1.169.141-.463.885-2.648 2.233-6.557h2.232l-4.157 11.013c-.756 2.021-2.016 3.032-3.779 3.032a5.98 5.98 0 01-1.336-.149v-1.635c.31.07.665.106 1.063.106.996 0 1.697-.578 2.101-1.732l.36-.914-3.902-9.721zm20.452 13.158h-1.925V153h-6.662v3.437h-1.907V151.4h.791c.691-.99 1.239-2.185 1.643-3.586.411-1.406.654-2.918.73-4.535h5.906v8.121h1.424v5.037zm-3.454-5.037v-6.539h-2.092a17.822 17.822 0 01-.703 3.569c-.352 1.172-.782 2.162-1.292 2.97h4.087zm13.878-3.278c0 1.588-.407 2.827-1.222 3.718-.814.89-1.948 1.336-3.401 1.336-.908 0-1.711-.205-2.408-.615-.698-.411-1.234-.999-1.609-1.767-.375-.768-.562-1.658-.562-2.672 0-1.576.404-2.807 1.213-3.691.808-.885 1.948-1.327 3.419-1.327 1.406 0 2.519.454 3.339 1.362.821.902 1.231 2.121 1.231 3.656zm-7.075 0c0 2.244.829 3.366 2.487 3.366 1.641 0 2.461-1.122 2.461-3.366 0-2.221-.826-3.331-2.479-3.331-.867 0-1.497.287-1.889.861-.387.575-.58 1.398-.58 2.47zm14.247-.123v-4.72h1.924v4.72l3.745-4.72h2.179l-3.823 4.702 4.166 5.019h-2.276l-3.991-4.931V153h-1.924v-4.931L157.656 153h-2.267l4.157-5.019-3.815-4.702h2.18l3.727 4.72zm11.759-4.72v3.903h4.58v-3.903h2.065V153h-2.065v-4.192h-4.58V153h-2.065v-9.721h2.065zm11.584 0v4.984c0 .58-.046 1.432-.14 2.557l4.878-7.541h2.522V153h-1.986v-4.896c0-.269.015-.706.044-1.309.035-.604.064-1.043.088-1.318L185.526 153h-2.522v-9.721h1.977zm16.234 0h2.267l-4.016 4.685 4.359 5.036h-2.373l-4.201-4.931V153h-2.065v-9.721h2.065v4.72l3.964-4.72z" fill="#666"/><path d="M110.015 44.22a5 5 0 004.993-4.993 4.999 4.999 0 00-4.993-4.993 5 5 0 00-4.994 4.993 5 5 0 004.994 4.994zm0-7.133c1.18 0 2.14.96 2.14 2.14 0 1.18-.96 2.14-2.14 2.14-1.18 0-2.14-.96-2.14-2.14 0-1.18.96-2.14 2.14-2.14zM174.93 63.48a5 5 0 004.993 4.994 5 5 0 004.993-4.993 4.999 4.999 0 00-4.993-4.994 4.999 4.999 0 00-4.993 4.994zm4.993-2.14c1.18 0 2.14.96 2.14 2.14 0 1.18-.96 2.14-2.14 2.14-1.18 0-2.14-.96-2.14-2.14 0-1.18.96-2.14 2.14-2.14zM185.629 47.976a1.615 1.615 0 100-3.23 1.615 1.615 0 000 3.23zM117.149 53.683a1.615 1.615 0 100-3.23 1.615 1.615 0 000 3.23zM169.873 41.43a1.422 1.422 0 002.017 0l1.612-1.612 1.612 1.612a1.424 1.424 0 002.018 0 1.427 1.427 0 000-2.017L175.52 37.8l1.612-1.612a1.427 1.427 0 10-2.018-2.018l-1.612 1.612-1.612-1.612a1.426 1.426 0 10-2.017 2.018l1.612 1.612-1.612 1.612a1.427 1.427 0 000 2.017zM104.246 71.39a1.424 1.424 0 002.017 0l1.612-1.612 1.613 1.612a1.424 1.424 0 002.017 0 1.427 1.427 0 000-2.017l-1.612-1.612 1.612-1.612a1.427 1.427 0 00-2.017-2.018l-1.613 1.612-1.612-1.612a1.426 1.426 0 10-2.017 2.017l1.612 1.613-1.612 1.612a1.427 1.427 0 000 2.017zM152.815 72.04a1.427 1.427 0 100-2.853 1.427 1.427 0 000 2.854zM138.55 72.04a1.426 1.426 0 100-2.852 1.426 1.426 0 000 2.853z" fill="#B6B6B6"/><path d="M185.058 93.726c-1.81-1.358-1.962-3.552-2.137-6.092-.275-3.96-.616-8.886-8.528-9.876-4.032-.5-8.029.792-11.262 3.644-2.686 2.372-4.583 5.608-5.467 9.108l-5.561-2.527v-1.15c0-.014-.008-.025-.008-.038a21.358 21.358 0 0011.296-13.33c.948.024 1.822-.23 2.684-.768 1.324-.826 2.22-2.17 2.395-3.596a5.014 5.014 0 00-1.212-3.934 5.001 5.001 0 00-2.422-1.51c-.003-.25-.013-1.161-.016-1.256.071-.172.123-6.36.123-6.36.33-.039.652-.099.956-.204 1.07-.369 1.886-1.127 2.424-2.251h.001c1.857-3.878-1.46-9.373-7.761-13.603a4.936 4.936 0 00.085-3.48 4.963 4.963 0 00-2.552-2.843 4.948 4.948 0 00-6.477 2.04c-7.245-2.259-13.605-1.399-15.464 2.48a4.012 4.012 0 00-.305 2.67c-6.106 2.792-9.452 8.07-9.426 14.958l.018 2.356c.014 1.333.049 3.83.075 3.942 0 .021.015 1.2.015 1.549a4.959 4.959 0 00-2.275 1.351 4.96 4.96 0 00-1.396 3.649c.053 1.527.919 3 2.315 3.943.882.595 1.767.886 2.728.87 1.492 5.452 5.111 10.027 9.939 12.805 0 .012-.006.022-.006.034v1.676l-11.371 5.167c-5.225 2.376-8.603 7.684-8.603 13.521v11.736c0 .788.638 1.426 1.427 1.426h51.36c.789 0 1.427-.638 1.427-1.426v-6.569a17.15 17.15 0 002.14.149c6.301 0 12.983-4.079 14.592-8.905.651-1.955 1.03-5.77-3.751-9.356zm-29.832-57.582a2.137 2.137 0 011.634.088 2.138 2.138 0 011.187 2.217 35.595 35.595 0 00-1.803-.931 35.531 35.531 0 00-1.838-.815c.23-.242.496-.445.82-.559zm-16.499 3.267c.643-1.339 2.647-2.118 5.459-2.118 2.938 0 6.758.85 10.827 2.798 7.96 3.815 12.047 9.524 10.736 12.263-.262.548-.556.708-.783.788-1.661.568-5.599-1.381-9.779-3.443-1.027-.507-2.104-1.04-3.23-1.579-1.105-.529-2.2-1.037-3.261-1.53-4.608-2.142-9.37-4.358-10.045-6.24-.112-.31-.09-.592.076-.939zm-1.428 3.91c2.002 2.043 5.737 3.784 10.193 5.855 1.053.49 2.139.994 3.233 1.52 1.115.533 2.182 1.06 3.199 1.561 3.238 1.6 5.928 2.924 8.165 3.508v5.395c-4.269 3.21-9.097 4.426-13.659 3.428-4.091-.893-7.483-3.485-9.306-7.112a1.426 1.426 0 00-2.297-.354c-1.841 1.895-4.528 3.033-7.517 3.22-.001-.688-.009-1.438-.017-2.206l-.018-2.34c-.027-7.351 4.263-10.832 8.024-12.475zm-6.921 28.232a1.43 1.43 0 00-.686-.95 1.443 1.443 0 00-1.167-.116c-.552.188-1.062.214-1.753-.255-.632-.426-1.039-1.07-1.062-1.678a2.13 2.13 0 01.6-1.567c.406-.42.953-.653 1.539-.653.386 0 .77-.165 1.039-.44.396-.407.519-.757.494-2.704 3.052-.171 5.884-1.167 8.103-2.852 2.333 3.568 6.013 6.095 10.336 7.038 1.248.273 2.509.408 3.773.408 3.548 0 7.107-1.08 10.419-3.138.054.652.184.964.473 1.256.267.272.648.432 1.03.432.613 0 1.198.263 1.603.723.412.465.596 1.067.52 1.695-.073.58-.474 1.149-1.073 1.523-.602.375-1.112.432-1.757.205-.384-.14-.812-.1-1.169.097-.358.2-.613.544-.701.944-1.389 6.378-6.103 11.589-12.305 13.598l-.63.206c-1.773.575-3.586.596-5.238.063a18.436 18.436 0 01-12.388-13.835zm11.513 16.552c1.081.348 2.206.52 3.347.52 1.211 0 2.438-.195 3.647-.586l.364-.119v.527c0 2.36-1.92 4.28-4.28 4.28-2.36 0-4.28-1.92-4.28-4.28v-.815c.401.156.789.34 1.202.472zm27.331 28.876h-8.56v-7.134a1.425 1.425 0 10-2.853 0v7.134h-27.107v-7.134a1.425 1.425 0 10-2.853 0v7.134h-7.133v-10.309c0-4.721 2.721-9.01 6.931-10.924l10.652-4.841c1.007 2.72 3.605 4.674 6.67 4.674s5.663-1.955 6.67-4.675l5.536 2.516c-.04.48-.079.962-.079 1.445 0 7.704 5.115 14.231 12.126 16.373v5.741zm16.879-14.801c-1.213 3.639-6.878 6.954-11.885 6.954-7.867 0-14.267-6.4-14.267-14.267 0-4.29 1.896-8.523 5.071-11.325 2.246-1.983 4.931-3.036 7.678-3.036.446 0 .893.028 1.341.083 5.582.698 5.772 3.443 6.035 7.24.195 2.83.417 6.038 3.273 8.18 2.554 1.915 3.48 3.992 2.754 6.171z" fill="#B6B6B6"/><path d="M179.923 96.352a4.226 4.226 0 00-4.222 4.222 4.226 4.226 0 004.222 4.22 4.226 4.226 0 004.221-4.22 4.226 4.226 0 00-4.221-4.222zm0 5.589a1.37 1.37 0 01-1.368-1.367 1.37 1.37 0 011.368-1.368c.753 0 1.368.614 1.368 1.368a1.37 1.37 0 01-1.368 1.367zM171.363 82.573a3.738 3.738 0 00-3.734 3.734 3.737 3.737 0 003.734 3.734 3.738 3.738 0 003.734-3.734 3.738 3.738 0 00-3.734-3.734zm0 4.615a.883.883 0 01-.881-.88.882.882 0 11.881.88zM168.677 94.154a3.738 3.738 0 00-3.734-3.734 3.738 3.738 0 00-3.734 3.734 3.738 3.738 0 003.734 3.734 3.738 3.738 0 003.734-3.734zm-3.734.88a.883.883 0 01-.881-.88c0-.485.396-.88.881-.88s.881.395.881.88-.396.88-.881.88zM169.935 99.693a3.738 3.738 0 00-3.734 3.734 3.738 3.738 0 003.734 3.734 3.737 3.737 0 003.734-3.734 3.737 3.737 0 00-3.734-3.734zm0 4.615a.881.881 0 11.881-.881.883.883 0 01-.881.881zM113.9 84.72c-.264-.261-.533-.528-.795-.802h-.001v-.002c-1.094-1.143-1.822-2.186-1.822-3.55 0-1.812-.941-2.31-1.502-2.444-2.225-.563-4.83 3.803-6.185 6.443-.813 1.587-1.784 3.808-1.784 5.378 0 2.768 1.526 5.164 3.766 6.461l-.825 18.327c-.067 1.481.451 2.914 1.422 3.928.847.887 1.959 1.375 3.129 1.375s2.282-.488 3.129-1.375c.971-1.014 1.49-2.446 1.422-3.928l-.825-18.327c2.24-1.297 3.767-3.693 3.767-6.461 0-2.155-1.539-3.68-2.896-5.023zm-5.322-2.95c.265 1.193.846 2.187 1.519 3.042-.504.375-1.002.573-1.488.592-.655-.003-1.365-.305-1.945-.724a23.39 23.39 0 011.914-2.91zm2.426 32.889c.032.707-.199 1.374-.634 1.828-.215.226-.575.494-1.067.494s-.853-.268-1.067-.494c-.435-.454-.666-1.121-.634-1.828l.789-17.516c.302.037.6.093.912.093.312 0 .61-.055.912-.093l.789 17.516zm-1.701-20.277a4.645 4.645 0 01-4.64-4.64c0-.404.212-1.263.735-2.503 1.027.657 2.072 1.02 3.127 1.02.064 0 .128-.002.194-.004 1.168-.045 2.282-.504 3.329-1.354 1.031 1.024 1.894 1.922 1.894 2.842a4.645 4.645 0 01-4.639 4.64z" fill="#B6B6B6"/></svg>