<svg width="300" height="300" fill="none" xmlns="http://www.w3.org/2000/svg"><path fill="#000" fill-opacity=".5" d="M0 0h300v300H0z"/><path fill="#fff" d="M128.135 159.197L110 176.639l4.534 4.361 18.135-17.442z"/><path fill-rule="evenodd" clip-rule="evenodd" d="M154.27 167.771c-16.229 0-29.385-13.088-29.385-29.232s13.156-29.231 29.385-29.231c16.228 0 29.384 13.087 29.384 29.231 0 16.144-13.156 29.232-29.384 29.232zm0 7.308c-20.286 0-36.731-16.36-36.731-36.54S133.984 102 154.27 102c20.285 0 36.73 16.359 36.73 36.539s-16.445 36.54-36.73 36.54z" fill="#fff"/><path d="M152 126v25h5.995v-25H152z" fill="#fff"/><path d="M167.234 136h-25v5.995h25V136z" fill="#fff"/></svg>