<svg id="Слой_1" data-name="Слой 1" xmlns="http://www.w3.org/2000/svg" viewBox="0 0 305.80851 45.19149">
  <defs>
    <style>
      .cls-1 {
        fill: #fff;
      }

      .cls-2 {
        fill: #944c98;
      }
    </style>
  </defs>
  <g>
    <path class="cls-1" d="M43.1709,29.00522A11.33742,11.33742,0,0,1,31.84668,40.32943H9.19824A1.02984,1.02984,0,0,1,8.169,39.29965V6.35678A1.02985,1.02985,0,0,1,9.19824,5.327H33.90576a1.02954,1.02954,0,0,1,0,2.05908H10.228V17.681H31.84668A11.33743,11.33743,0,0,1,43.1709,29.00522Zm-2.0586,0a9.277,9.277,0,0,0-9.26562-9.26563H10.228V38.27035H31.84668A9.27532,9.27532,0,0,0,41.1123,29.00522Z"/>
    <path class="cls-1" d="M68.22119,22.82846A17.501,17.501,0,1,1,50.72021,5.327,17.52069,17.52069,0,0,1,68.22119,22.82846Zm-2.05859,0A15.44214,15.44214,0,1,0,50.72021,38.27035,15.45839,15.45839,0,0,0,66.1626,22.82846Z"/>
    <path class="cls-1" d="M101.271,6.35678V39.29965a1.0293,1.0293,0,1,1-2.0586,0V23.85775H68.32812v15.4419a1.02954,1.02954,0,1,1-2.05908,0V6.35678a1.02954,1.02954,0,1,1,2.05908,0V21.79867H99.2124V6.35678a1.0293,1.0293,0,1,1,2.0586,0Z"/>
    <path class="cls-1" d="M125.74414,6.81772l-8.23193,16.46142-.01026.02246-8.22949,16.45947a1.034,1.034,0,0,1-.92236.56836,1,1,0,0,1-.46143-.10937,1.02951,1.02951,0,0,1-.46094-1.38135l8.00489-16.01025L107.42773,6.81772a1.02993,1.02993,0,0,1,1.84278-.92041l7.31543,14.6289,7.31543-14.6289a1.02992,1.02992,0,0,1,1.84277.92041Z"/>
    <path class="cls-1" d="M158.87012,22.82846A17.501,17.501,0,1,1,141.36914,5.327a1.02954,1.02954,0,0,1,0,2.05908,15.44214,15.44214,0,1,0,15.44238,15.44239,1.0293,1.0293,0,1,1,2.0586,0Z"/>
    <path class="cls-1" d="M164.91846,39.29965a1.02954,1.02954,0,1,1,1.02929,1.02978A1.02943,1.02943,0,0,1,164.91846,39.29965Z"/>
    <path class="cls-2" d="M207.86719,39.84115a1.031,1.031,0,0,1-.875.48828H174.04883a1.02931,1.02931,0,0,1-.92237-1.48877L189.59814,5.89731a1.07433,1.07433,0,0,1,1.84278,0L207.9126,38.84066A1.02459,1.02459,0,0,1,207.86719,39.84115Zm-2.541-1.5708L190.52051,8.65854,175.71436,38.27035Z"/>
    <path class="cls-1" d="M240.96484,38.83871a1.03036,1.03036,0,0,1-1.84277.92236l-7.95166-15.90332h-6.56982v15.4419a1.02955,1.02955,0,1,1-2.05909,0V23.85775h-6.57031l-7.95166,15.89942a1.02992,1.02992,0,0,1-1.84277-.92041L214.18213,22.826,206.17676,6.81576a1.02992,1.02992,0,0,1,1.84277-.92041l7.95166,15.90332h6.57031V6.35678a1.02955,1.02955,0,1,1,2.05909,0V21.79867h6.56982l7.94971-15.90136a1.02992,1.02992,0,0,1,1.84277.92041L232.958,22.82846Z"/>
    <path class="cls-1" d="M274.11914,39.29965a1.03016,1.03016,0,0,1-1.0293,1.02978H240.14648a1.03136,1.03136,0,0,1-.92041-1.49072l8.22559-16.45117c.00586-.01221.01221-.02686.01855-.03906l8.22754-16.45313a1.03163,1.03163,0,0,1,.92041-.56836H264.854a1.02954,1.02954,0,0,1,0,2.05908h-7.59961l-7.20654,14.4126H264.854a1.02954,1.02954,0,0,1,0,2.05908H249.01855L241.812,38.27035h31.27783A1.0285,1.0285,0,0,1,274.11914,39.29965Z"/>
    <path class="cls-1" d="M299.11914,6.35678a1.02943,1.02943,0,0,1-1.0293,1.02929H282.64746V39.29965a1.0293,1.0293,0,1,1-2.05859,0V7.38607H265.14648a1.02954,1.02954,0,0,1,0-2.05908h32.94336A1.0286,1.0286,0,0,1,299.11914,6.35678Z"/>
  </g>
</svg>
