<svg id="Слой_1" data-name="Слой 1" xmlns="http://www.w3.org/2000/svg" viewBox="0 0 305.80851 45.19149">
  <defs>
    <style>
      .cls-1 {
        fill: #1d1d1b;
      }

      .cls-2 {
        fill: #944c98;
      }
    </style>
  </defs>
  <g>
    <path class="cls-1" d="M43.1709,29.0049A11.33743,11.33743,0,0,1,31.84668,40.32912H9.19824A1.02984,1.02984,0,0,1,8.169,39.29934V6.35647A1.02985,1.02985,0,0,1,9.19824,5.32668H33.90576a1.02954,1.02954,0,0,1,0,2.05908H10.228V17.68068H31.84668A11.33743,11.33743,0,0,1,43.1709,29.0049Zm-2.0586,0a9.277,9.277,0,0,0-9.26562-9.26562H10.228V38.27H31.84668A9.27532,9.27532,0,0,0,41.1123,29.0049Z"/>
    <path class="cls-1" d="M68.22119,22.82815a17.501,17.501,0,1,1-17.501-17.50147A17.52069,17.52069,0,0,1,68.22119,22.82815Zm-2.05859,0A15.44214,15.44214,0,1,0,50.72021,38.27,15.45839,15.45839,0,0,0,66.1626,22.82815Z"/>
    <path class="cls-1" d="M101.271,6.35647V39.29934a1.0293,1.0293,0,1,1-2.0586,0V23.85744H68.32812v15.4419a1.02954,1.02954,0,1,1-2.05908,0V6.35647a1.02954,1.02954,0,1,1,2.05908,0V21.79836H99.2124V6.35647a1.0293,1.0293,0,1,1,2.0586,0Z"/>
    <path class="cls-1" d="M125.74414,6.8174l-8.23193,16.46143-.01026.02246-8.22949,16.45947a1.034,1.034,0,0,1-.92236.56836,1,1,0,0,1-.46143-.10937,1.02951,1.02951,0,0,1-.46094-1.38135l8.00489-16.01025L107.42773,6.8174a1.02993,1.02993,0,0,1,1.84278-.92041l7.31543,14.62891L123.90137,5.897a1.02992,1.02992,0,0,1,1.84277.92041Z"/>
    <path class="cls-1" d="M158.87012,22.82815a17.501,17.501,0,1,1-17.501-17.50147,1.02954,1.02954,0,0,1,0,2.05908,15.44214,15.44214,0,1,0,15.44238,15.44239,1.0293,1.0293,0,1,1,2.0586,0Z"/>
    <path class="cls-1" d="M164.91846,39.29934a1.02954,1.02954,0,1,1,1.02929,1.02978A1.02943,1.02943,0,0,1,164.91846,39.29934Z"/>
    <path class="cls-2" d="M207.86719,39.84084a1.031,1.031,0,0,1-.875.48828H174.04883a1.02931,1.02931,0,0,1-.92237-1.48877L189.59814,5.897a1.07434,1.07434,0,0,1,1.84278,0L207.9126,38.84035A1.02459,1.02459,0,0,1,207.86719,39.84084Zm-2.541-1.5708L190.52051,8.65822,175.71436,38.27Z"/>
    <path class="cls-1" d="M240.96484,38.8384a1.03036,1.03036,0,0,1-1.84277.92236l-7.95166-15.90332h-6.56982v15.4419a1.02955,1.02955,0,1,1-2.05909,0V23.85744h-6.57031l-7.95166,15.89942a1.02992,1.02992,0,0,1-1.84277-.92041l8.00537-16.01075L206.17676,6.81545a1.02992,1.02992,0,0,1,1.84277-.92041l7.95166,15.90332h6.57031V6.35647a1.02955,1.02955,0,1,1,2.05909,0V21.79836h6.56982L239.12012,5.897a1.02992,1.02992,0,0,1,1.84277.92041L232.958,22.82815Z"/>
    <path class="cls-1" d="M274.11914,39.29934a1.03016,1.03016,0,0,1-1.0293,1.02978H240.14648a1.03136,1.03136,0,0,1-.92041-1.49072l8.22559-16.45117c.00586-.01221.01221-.02686.01855-.03906L255.69775,5.895a1.03161,1.03161,0,0,1,.92041-.56836H264.854a1.02954,1.02954,0,0,1,0,2.05908h-7.59961l-7.20654,14.4126H264.854a1.02954,1.02954,0,0,1,0,2.05908H249.01855L241.812,38.27h31.27783A1.0285,1.0285,0,0,1,274.11914,39.29934Z"/>
    <path class="cls-1" d="M299.11914,6.35647a1.02943,1.02943,0,0,1-1.0293,1.02929H282.64746V39.29934a1.0293,1.0293,0,1,1-2.05859,0V7.38576H265.14648a1.02954,1.02954,0,0,1,0-2.05908h32.94336A1.0286,1.0286,0,0,1,299.11914,6.35647Z"/>
  </g>
</svg>
