<svg width="45" height="45" fill="none" xmlns="http://www.w3.org/2000/svg"><path d="M18.117 22.5a4.307 4.307 0 108.613 0 4.307 4.307 0 00-8.613 0z" fill="#CACACA"/><path d="M12.352 14.88c.207-.56.537-1.068.967-1.485a4 4 0 011.485-.967c.455-.177 1.14-.387 2.399-.444 1.363-.062 1.771-.076 5.22-.076 3.45 0 3.86.013 5.222.075 1.26.058 1.944.268 2.399.445.56.207 1.069.538 1.485.967.43.417.76.924.967 1.485.177.456.387 1.14.444 2.4.063 1.362.076 1.77.076 5.22 0 3.45-.013 3.859-.075 5.221-.058 1.26-.268 1.944-.445 2.4a4.005 4.005 0 01-.967 1.485 4 4 0 01-1.485.966c-.455.177-1.14.388-2.4.445-1.362.062-1.77.075-5.22.075-3.45 0-3.859-.013-5.22-.075-1.26-.057-1.945-.268-2.4-.445a4.278 4.278 0 01-2.452-2.452c-.177-.455-.387-1.139-.445-2.399-.062-1.362-.075-1.77-.075-5.22 0-3.45.013-3.86.075-5.222.057-1.26.268-1.943.445-2.399zm10.072 14.254a6.634 6.634 0 100-13.268 6.634 6.634 0 000 13.268zm-6.897-11.98a1.55 1.55 0 100-3.101 1.55 1.55 0 000 3.1z" fill="#CACACA"/><path d="M22.62 0c12.316 0 22.304 9.987 22.304 22.303S34.936 44.607 22.62 44.607C10.304 44.607.317 34.619.317 22.303.317 9.987 10.304 0 22.62 0zM9.89 27.584c.063 1.363.28 2.294.596 3.108a6.549 6.549 0 003.745 3.746c.815.316 1.746.533 3.109.595 1.366.063 1.802.078 5.28.078 3.479 0 3.915-.015 5.28-.078 1.364-.062 2.295-.279 3.109-.595a6.274 6.274 0 002.269-1.477 6.276 6.276 0 001.477-2.269c.316-.814.533-1.745.595-3.108.063-1.366.077-1.802.077-5.28 0-3.479-.014-3.915-.077-5.28-.062-1.364-.278-2.295-.595-3.11a6.274 6.274 0 00-1.477-2.268 6.273 6.273 0 00-2.269-1.477c-.814-.317-1.745-.533-3.108-.595-1.366-.063-1.802-.078-5.28-.078-3.479 0-3.915.015-5.28.078-1.364.062-2.295.278-3.11.595a6.279 6.279 0 00-2.268 1.477 6.275 6.275 0 00-1.477 2.268c-.317.815-.533 1.746-.596 3.11-.062 1.365-.077 1.801-.077 5.28 0 3.478.015 3.914.078 5.28z" fill="#CACACA"/></svg>