<?xml version="1.0" encoding="utf-8"?><svg viewBox="0 0 290 181" xmlns="http://www.w3.org/2000/svg" xmlns:xlink="http://www.w3.org/1999/xlink"><style>:root>svg{display:none}:root>svg:target{display:block}</style><svg fill="none" viewBox="0 0 290 181" id="artist-plug" xmlns="http://www.w3.org/2000/svg"><path fill="#ECECEC" d="M0 0h290v181H0z"/><path d="M97.205 153h-2.417l-3.217-5.256L88.328 153h-2.25l4.263-6.662-3.99-6.188h2.338l2.97 4.861 2.97-4.861h2.268l-4.016 6.223L97.205 153zm5.344-3.946v-1.758h4.517v1.758h-4.517zM123.555 153h-2.417l-3.217-5.256-3.243 5.256h-2.25l4.262-6.662-3.99-6.188h2.338l2.971 4.861 2.97-4.861h2.268l-4.017 6.223 4.325 6.627zm.035-9.721h2.25l1.977 5.511c.299.785.498 1.523.598 2.215h.07c.053-.322.15-.712.29-1.169.141-.463.885-2.648 2.233-6.557h2.232l-4.157 11.013c-.756 2.021-2.016 3.032-3.779 3.032a5.98 5.98 0 01-1.336-.149v-1.635c.31.07.665.106 1.063.106.996 0 1.697-.578 2.101-1.732l.36-.914-3.902-9.721zm20.452 13.158h-1.925V153h-6.662v3.437h-1.907V151.4h.791c.691-.99 1.239-2.185 1.643-3.586.411-1.406.654-2.918.73-4.535h5.906v8.121h1.424v5.037zm-3.454-5.037v-6.539h-2.092a17.822 17.822 0 01-.703 3.569c-.352 1.172-.782 2.162-1.292 2.97h4.087zm13.878-3.278c0 1.588-.407 2.827-1.222 3.718-.814.89-1.948 1.336-3.401 1.336-.908 0-1.711-.205-2.408-.615-.698-.411-1.234-.999-1.609-1.767-.375-.768-.562-1.658-.562-2.672 0-1.576.404-2.807 1.213-3.691.808-.885 1.948-1.327 3.419-1.327 1.406 0 2.519.454 3.339 1.362.821.902 1.231 2.121 1.231 3.656zm-7.075 0c0 2.244.829 3.366 2.487 3.366 1.641 0 2.461-1.122 2.461-3.366 0-2.221-.826-3.331-2.479-3.331-.867 0-1.497.287-1.889.861-.387.575-.58 1.398-.58 2.47zm14.247-.123v-4.72h1.924v4.72l3.745-4.72h2.179l-3.823 4.702 4.166 5.019h-2.276l-3.991-4.931V153h-1.924v-4.931L157.656 153h-2.267l4.157-5.019-3.815-4.702h2.18l3.727 4.72zm11.759-4.72v3.903h4.58v-3.903h2.065V153h-2.065v-4.192h-4.58V153h-2.065v-9.721h2.065zm11.584 0v4.984c0 .58-.046 1.432-.14 2.557l4.878-7.541h2.522V153h-1.986v-4.896c0-.269.015-.706.044-1.309.035-.604.064-1.043.088-1.318L185.526 153h-2.522v-9.721h1.977zm16.234 0h2.267l-4.016 4.685 4.359 5.036h-2.373l-4.201-4.931V153h-2.065v-9.721h2.065v4.72l3.964-4.72z" fill="#666"/><path d="M110.015 44.22a5 5 0 004.993-4.993 4.999 4.999 0 00-4.993-4.993 5 5 0 00-4.994 4.993 5 5 0 004.994 4.994zm0-7.133c1.18 0 2.14.96 2.14 2.14 0 1.18-.96 2.14-2.14 2.14-1.18 0-2.14-.96-2.14-2.14 0-1.18.96-2.14 2.14-2.14zM174.93 63.48a5 5 0 004.993 4.994 5 5 0 004.993-4.993 4.999 4.999 0 00-4.993-4.994 4.999 4.999 0 00-4.993 4.994zm4.993-2.14c1.18 0 2.14.96 2.14 2.14 0 1.18-.96 2.14-2.14 2.14-1.18 0-2.14-.96-2.14-2.14 0-1.18.96-2.14 2.14-2.14zM185.629 47.976a1.615 1.615 0 100-3.23 1.615 1.615 0 000 3.23zM117.149 53.683a1.615 1.615 0 100-3.23 1.615 1.615 0 000 3.23zM169.873 41.43a1.422 1.422 0 002.017 0l1.612-1.612 1.612 1.612a1.424 1.424 0 002.018 0 1.427 1.427 0 000-2.017L175.52 37.8l1.612-1.612a1.427 1.427 0 10-2.018-2.018l-1.612 1.612-1.612-1.612a1.426 1.426 0 10-2.017 2.018l1.612 1.612-1.612 1.612a1.427 1.427 0 000 2.017zM104.246 71.39a1.424 1.424 0 002.017 0l1.612-1.612 1.613 1.612a1.424 1.424 0 002.017 0 1.427 1.427 0 000-2.017l-1.612-1.612 1.612-1.612a1.427 1.427 0 00-2.017-2.018l-1.613 1.612-1.612-1.612a1.426 1.426 0 10-2.017 2.017l1.612 1.613-1.612 1.612a1.427 1.427 0 000 2.017zM152.815 72.04a1.427 1.427 0 100-2.853 1.427 1.427 0 000 2.854zM138.55 72.04a1.426 1.426 0 100-2.852 1.426 1.426 0 000 2.853z" fill="#B6B6B6"/><path d="M185.058 93.726c-1.81-1.358-1.962-3.552-2.137-6.092-.275-3.96-.616-8.886-8.528-9.876-4.032-.5-8.029.792-11.262 3.644-2.686 2.372-4.583 5.608-5.467 9.108l-5.561-2.527v-1.15c0-.014-.008-.025-.008-.038a21.358 21.358 0 0011.296-13.33c.948.024 1.822-.23 2.684-.768 1.324-.826 2.22-2.17 2.395-3.596a5.014 5.014 0 00-1.212-3.934 5.001 5.001 0 00-2.422-1.51c-.003-.25-.013-1.161-.016-1.256.071-.172.123-6.36.123-6.36.33-.039.652-.099.956-.204 1.07-.369 1.886-1.127 2.424-2.251h.001c1.857-3.878-1.46-9.373-7.761-13.603a4.936 4.936 0 00.085-3.48 4.963 4.963 0 00-2.552-2.843 4.948 4.948 0 00-6.477 2.04c-7.245-2.259-13.605-1.399-15.464 2.48a4.012 4.012 0 00-.305 2.67c-6.106 2.792-9.452 8.07-9.426 14.958l.018 2.356c.014 1.333.049 3.83.075 3.942 0 .021.015 1.2.015 1.549a4.959 4.959 0 00-2.275 1.351 4.96 4.96 0 00-1.396 3.649c.053 1.527.919 3 2.315 3.943.882.595 1.767.886 2.728.87 1.492 5.452 5.111 10.027 9.939 12.805 0 .012-.006.022-.006.034v1.676l-11.371 5.167c-5.225 2.376-8.603 7.684-8.603 13.521v11.736c0 .788.638 1.426 1.427 1.426h51.36c.789 0 1.427-.638 1.427-1.426v-6.569a17.15 17.15 0 002.14.149c6.301 0 12.983-4.079 14.592-8.905.651-1.955 1.03-5.77-3.751-9.356zm-29.832-57.582a2.137 2.137 0 011.634.088 2.138 2.138 0 011.187 2.217 35.595 35.595 0 00-1.803-.931 35.531 35.531 0 00-1.838-.815c.23-.242.496-.445.82-.559zm-16.499 3.267c.643-1.339 2.647-2.118 5.459-2.118 2.938 0 6.758.85 10.827 2.798 7.96 3.815 12.047 9.524 10.736 12.263-.262.548-.556.708-.783.788-1.661.568-5.599-1.381-9.779-3.443-1.027-.507-2.104-1.04-3.23-1.579-1.105-.529-2.2-1.037-3.261-1.53-4.608-2.142-9.37-4.358-10.045-6.24-.112-.31-.09-.592.076-.939zm-1.428 3.91c2.002 2.043 5.737 3.784 10.193 5.855 1.053.49 2.139.994 3.233 1.52 1.115.533 2.182 1.06 3.199 1.561 3.238 1.6 5.928 2.924 8.165 3.508v5.395c-4.269 3.21-9.097 4.426-13.659 3.428-4.091-.893-7.483-3.485-9.306-7.112a1.426 1.426 0 00-2.297-.354c-1.841 1.895-4.528 3.033-7.517 3.22-.001-.688-.009-1.438-.017-2.206l-.018-2.34c-.027-7.351 4.263-10.832 8.024-12.475zm-6.921 28.232a1.43 1.43 0 00-.686-.95 1.443 1.443 0 00-1.167-.116c-.552.188-1.062.214-1.753-.255-.632-.426-1.039-1.07-1.062-1.678a2.13 2.13 0 01.6-1.567c.406-.42.953-.653 1.539-.653.386 0 .77-.165 1.039-.44.396-.407.519-.757.494-2.704 3.052-.171 5.884-1.167 8.103-2.852 2.333 3.568 6.013 6.095 10.336 7.038 1.248.273 2.509.408 3.773.408 3.548 0 7.107-1.08 10.419-3.138.054.652.184.964.473 1.256.267.272.648.432 1.03.432.613 0 1.198.263 1.603.723.412.465.596 1.067.52 1.695-.073.58-.474 1.149-1.073 1.523-.602.375-1.112.432-1.757.205-.384-.14-.812-.1-1.169.097-.358.2-.613.544-.701.944-1.389 6.378-6.103 11.589-12.305 13.598l-.63.206c-1.773.575-3.586.596-5.238.063a18.436 18.436 0 01-12.388-13.835zm11.513 16.552c1.081.348 2.206.52 3.347.52 1.211 0 2.438-.195 3.647-.586l.364-.119v.527c0 2.36-1.92 4.28-4.28 4.28-2.36 0-4.28-1.92-4.28-4.28v-.815c.401.156.789.34 1.202.472zm27.331 28.876h-8.56v-7.134a1.425 1.425 0 10-2.853 0v7.134h-27.107v-7.134a1.425 1.425 0 10-2.853 0v7.134h-7.133v-10.309c0-4.721 2.721-9.01 6.931-10.924l10.652-4.841c1.007 2.72 3.605 4.674 6.67 4.674s5.663-1.955 6.67-4.675l5.536 2.516c-.04.48-.079.962-.079 1.445 0 7.704 5.115 14.231 12.126 16.373v5.741zm16.879-14.801c-1.213 3.639-6.878 6.954-11.885 6.954-7.867 0-14.267-6.4-14.267-14.267 0-4.29 1.896-8.523 5.071-11.325 2.246-1.983 4.931-3.036 7.678-3.036.446 0 .893.028 1.341.083 5.582.698 5.772 3.443 6.035 7.24.195 2.83.417 6.038 3.273 8.18 2.554 1.915 3.48 3.992 2.754 6.171z" fill="#B6B6B6"/><path d="M179.923 96.352a4.226 4.226 0 00-4.222 4.222 4.226 4.226 0 004.222 4.22 4.226 4.226 0 004.221-4.22 4.226 4.226 0 00-4.221-4.222zm0 5.589a1.37 1.37 0 01-1.368-1.367 1.37 1.37 0 011.368-1.368c.753 0 1.368.614 1.368 1.368a1.37 1.37 0 01-1.368 1.367zM171.363 82.573a3.738 3.738 0 00-3.734 3.734 3.737 3.737 0 003.734 3.734 3.738 3.738 0 003.734-3.734 3.738 3.738 0 00-3.734-3.734zm0 4.615a.883.883 0 01-.881-.88.882.882 0 11.881.88zM168.677 94.154a3.738 3.738 0 00-3.734-3.734 3.738 3.738 0 00-3.734 3.734 3.738 3.738 0 003.734 3.734 3.738 3.738 0 003.734-3.734zm-3.734.88a.883.883 0 01-.881-.88c0-.485.396-.88.881-.88s.881.395.881.88-.396.88-.881.88zM169.935 99.693a3.738 3.738 0 00-3.734 3.734 3.738 3.738 0 003.734 3.734 3.737 3.737 0 003.734-3.734 3.737 3.737 0 00-3.734-3.734zm0 4.615a.881.881 0 11.881-.881.883.883 0 01-.881.881zM113.9 84.72c-.264-.261-.533-.528-.795-.802h-.001v-.002c-1.094-1.143-1.822-2.186-1.822-3.55 0-1.812-.941-2.31-1.502-2.444-2.225-.563-4.83 3.803-6.185 6.443-.813 1.587-1.784 3.808-1.784 5.378 0 2.768 1.526 5.164 3.766 6.461l-.825 18.327c-.067 1.481.451 2.914 1.422 3.928.847.887 1.959 1.375 3.129 1.375s2.282-.488 3.129-1.375c.971-1.014 1.49-2.446 1.422-3.928l-.825-18.327c2.24-1.297 3.767-3.693 3.767-6.461 0-2.155-1.539-3.68-2.896-5.023zm-5.322-2.95c.265 1.193.846 2.187 1.519 3.042-.504.375-1.002.573-1.488.592-.655-.003-1.365-.305-1.945-.724a23.39 23.39 0 011.914-2.91zm2.426 32.889c.032.707-.199 1.374-.634 1.828-.215.226-.575.494-1.067.494s-.853-.268-1.067-.494c-.435-.454-.666-1.121-.634-1.828l.789-17.516c.302.037.6.093.912.093.312 0 .61-.055.912-.093l.789 17.516zm-1.701-20.277a4.645 4.645 0 01-4.64-4.64c0-.404.212-1.263.735-2.503 1.027.657 2.072 1.02 3.127 1.02.064 0 .128-.002.194-.004 1.168-.045 2.282-.504 3.329-1.354 1.031 1.024 1.894 1.922 1.894 2.842a4.645 4.645 0 01-4.639 4.64z" fill="#B6B6B6"/></svg><svg fill="none" viewBox="0 0 30 39" id="cursor" xmlns="http://www.w3.org/2000/svg"><path d="M10.588 0H8.823v1.773h1.765V0z" fill="#fff"/><path d="M12.353 0h-1.765v1.773h1.765V0zM8.823 1.773H7.058v1.773h1.765V1.773zM14.118 1.773h-1.765v1.773h1.765V1.773zM8.823 3.546H7.058v1.773h1.765V3.546zM14.118 3.546h-1.765v1.773h1.765V3.546z" fill="#fff"/><path d="M8.823 5.318H7.058V7.09h1.765V5.318zM14.118 5.318h-1.765V7.09h1.765V5.318zM8.823 7.09H7.058v1.774h1.765V7.09zM14.118 7.09h-1.765v1.774h1.765V7.09zM8.823 8.864H7.058v1.772h1.765V8.864zM14.118 8.864h-1.765v1.772h1.765V8.864z" fill="#fff"/><path d="M15.882 8.864h-1.765v1.772h1.765V8.864z" fill="#fff"/><path d="M17.647 8.864h-1.765v1.772h1.765V8.864zM8.823 10.636H7.058v1.773h1.765v-1.773zM14.118 10.636h-1.765v1.773h1.765v-1.773zM19.412 10.636h-1.765v1.773h1.765v-1.773zM21.177 10.636h-1.765v1.773h1.765v-1.773zM22.942 10.636h-1.765v1.773h1.765v-1.773zM8.823 12.41H7.058v1.772h1.765V12.41zM14.118 12.41h-1.765v1.772h1.765V12.41zM19.412 12.41h-1.765v1.772h1.765V12.41zM24.705 12.41H22.94v1.772h1.765V12.41z" fill="#fff"/><path d="M26.47 12.41h-1.765v1.772h1.765V12.41zM8.823 14.181H7.058v1.773h1.765v-1.773zM14.118 14.181h-1.765v1.773h1.765v-1.773zM19.412 14.181h-1.765v1.773h1.765v-1.773z" fill="#fff"/><path d="M24.705 14.181H22.94v1.773h1.765v-1.773zM28.235 14.181H26.47v1.773h1.765v-1.773zM1.765 15.954H0v1.773h1.765v-1.773zM3.53 15.954H1.765v1.773H3.53v-1.773zM5.295 15.954H3.53v1.773h1.765v-1.773zM8.823 15.954H7.058v1.773h1.765v-1.773zM14.118 15.954h-1.765v1.773h1.765v-1.773zM19.412 15.954h-1.765v1.773h1.765v-1.773zM19.412 17.727h-1.765V19.5h1.765v-1.773zM24.705 15.954H22.94v1.773h1.765v-1.773zM30 15.954h-1.765v1.773H30v-1.773zM1.765 17.727H0V19.5h1.765v-1.773zM7.058 17.727H5.294V19.5h1.764v-1.773zM8.823 17.727H7.058V19.5h1.765v-1.773zM24.705 17.727H22.94V19.5h1.765v-1.773zM24.705 19.5H22.94v1.773h1.765V19.5zM30 17.727h-1.765V19.5H30v-1.773zM1.765 19.5H0v1.773h1.765V19.5zM8.823 19.5H7.058v1.773h1.765V19.5zM30 19.5h-1.765v1.773H30V19.5zM3.53 21.273H1.765v1.773H3.53v-1.773zM30 21.273h-1.765v1.773H30v-1.773zM5.295 23.045H3.53v1.773h1.765v-1.773z" fill="#fff"/><path d="M30 23.045h-1.765v1.773H30v-1.773zM5.295 24.818H3.53v1.773h1.765v-1.773zM30 24.818h-1.765v1.773H30v-1.773z" fill="#fff"/><path d="M7.058 26.59H5.294v1.773h1.764v-1.772zM30 26.59h-1.765v1.773H30v-1.772zM7.058 28.363H5.294v1.774h1.764v-1.774zM28.235 28.363H26.47v1.774h1.765v-1.774zM8.823 30.137H7.058v1.772h1.765v-1.772zM28.235 30.137H26.47v1.772h1.765v-1.772zM8.823 31.91H7.058v1.772h1.765V31.91zM28.235 31.91H26.47v1.772h1.765V31.91zM10.588 33.681H8.823v1.773h1.765v-1.773zM26.47 33.681h-1.765v1.773h1.765v-1.773zM10.588 35.454H8.823v1.773h1.765v-1.773zM26.47 35.454h-1.765v1.773h1.765v-1.773z" fill="#fff"/><path d="M10.588 37.227H8.823V39h1.765v-1.773z" fill="#fff"/><path d="M12.353 37.227h-1.765V39h1.765v-1.773zM14.118 37.227h-1.765V39h1.765v-1.773z" fill="#fff"/><path d="M15.882 37.227h-1.765V39h1.765v-1.773z" fill="#fff"/><path d="M17.647 37.227h-1.765V39h1.765v-1.773zM19.412 37.227h-1.765V39h1.765v-1.773zM21.177 37.227h-1.765V39h1.765v-1.773zM22.942 37.227h-1.765V39h1.765v-1.773z" fill="#fff"/><path d="M24.705 37.227H22.94V39h1.765v-1.773z" fill="#fff"/><path d="M26.47 37.227h-1.765V39h1.765v-1.773z" fill="#fff"/></svg><svg fill="none" viewBox="0 0 30 39" id="cursor-white" xmlns="http://www.w3.org/2000/svg"><path d="M10.588 0H8.823v1.773h1.765V0z" fill="#fff"/><path d="M12.353 0h-1.765v1.773h1.765V0zM8.823 1.773H7.058v1.773h1.765V1.773zM14.118 1.773h-1.765v1.773h1.765V1.773zM8.823 3.546H7.058v1.773h1.765V3.546zM14.118 3.546h-1.765v1.773h1.765V3.546z" fill="#fff"/><path d="M8.823 5.318H7.058V7.09h1.765V5.318zM14.118 5.318h-1.765V7.09h1.765V5.318zM8.823 7.09H7.058v1.774h1.765V7.09zM14.118 7.09h-1.765v1.774h1.765V7.09zM8.823 8.864H7.058v1.772h1.765V8.864zM14.118 8.864h-1.765v1.772h1.765V8.864z" fill="#fff"/><path d="M15.882 8.864h-1.765v1.772h1.765V8.864z" fill="#fff"/><path d="M17.647 8.864h-1.765v1.772h1.765V8.864zM8.823 10.636H7.058v1.773h1.765v-1.773zM14.118 10.636h-1.765v1.773h1.765v-1.773zM19.412 10.636h-1.765v1.773h1.765v-1.773zM21.177 10.636h-1.765v1.773h1.765v-1.773zM22.942 10.636h-1.765v1.773h1.765v-1.773zM8.823 12.41H7.058v1.772h1.765V12.41zM14.118 12.41h-1.765v1.772h1.765V12.41zM19.412 12.41h-1.765v1.772h1.765V12.41zM24.705 12.41H22.94v1.772h1.765V12.41z" fill="#fff"/><path d="M26.47 12.41h-1.765v1.772h1.765V12.41zM8.823 14.181H7.058v1.773h1.765v-1.773zM14.118 14.181h-1.765v1.773h1.765v-1.773zM19.412 14.181h-1.765v1.773h1.765v-1.773z" fill="#fff"/><path d="M24.705 14.181H22.94v1.773h1.765v-1.773zM28.235 14.181H26.47v1.773h1.765v-1.773zM1.765 15.954H0v1.773h1.765v-1.773zM3.53 15.954H1.765v1.773H3.53v-1.773zM5.295 15.954H3.53v1.773h1.765v-1.773zM8.823 15.954H7.058v1.773h1.765v-1.773zM14.118 15.954h-1.765v1.773h1.765v-1.773zM19.412 15.954h-1.765v1.773h1.765v-1.773zM19.412 17.727h-1.765V19.5h1.765v-1.773zM24.705 15.954H22.94v1.773h1.765v-1.773zM30 15.954h-1.765v1.773H30v-1.773zM1.765 17.727H0V19.5h1.765v-1.773zM7.058 17.727H5.294V19.5h1.764v-1.773zM8.823 17.727H7.058V19.5h1.765v-1.773zM24.705 17.727H22.94V19.5h1.765v-1.773zM24.705 19.5H22.94v1.773h1.765V19.5zM30 17.727h-1.765V19.5H30v-1.773zM1.765 19.5H0v1.773h1.765V19.5zM8.823 19.5H7.058v1.773h1.765V19.5zM30 19.5h-1.765v1.773H30V19.5zM3.53 21.273H1.765v1.773H3.53v-1.773zM30 21.273h-1.765v1.773H30v-1.773zM5.295 23.045H3.53v1.773h1.765v-1.773z" fill="#fff"/><path d="M30 23.045h-1.765v1.773H30v-1.773zM5.295 24.818H3.53v1.773h1.765v-1.773zM30 24.818h-1.765v1.773H30v-1.773z" fill="#fff"/><path d="M7.058 26.59H5.294v1.773h1.764v-1.772zM30 26.59h-1.765v1.773H30v-1.772zM7.058 28.363H5.294v1.774h1.764v-1.774zM28.235 28.363H26.47v1.774h1.765v-1.774zM8.823 30.137H7.058v1.772h1.765v-1.772zM28.235 30.137H26.47v1.772h1.765v-1.772zM8.823 31.91H7.058v1.772h1.765V31.91zM28.235 31.91H26.47v1.772h1.765V31.91zM10.588 33.681H8.823v1.773h1.765v-1.773zM26.47 33.681h-1.765v1.773h1.765v-1.773zM10.588 35.454H8.823v1.773h1.765v-1.773zM26.47 35.454h-1.765v1.773h1.765v-1.773z" fill="#fff"/><path d="M10.588 37.227H8.823V39h1.765v-1.773z" fill="#fff"/><path d="M12.353 37.227h-1.765V39h1.765v-1.773zM14.118 37.227h-1.765V39h1.765v-1.773z" fill="#fff"/><path d="M15.882 37.227h-1.765V39h1.765v-1.773z" fill="#fff"/><path d="M17.647 37.227h-1.765V39h1.765v-1.773zM19.412 37.227h-1.765V39h1.765v-1.773zM21.177 37.227h-1.765V39h1.765v-1.773zM22.942 37.227h-1.765V39h1.765v-1.773z" fill="#fff"/><path d="M24.705 37.227H22.94V39h1.765v-1.773z" fill="#fff"/><path d="M26.47 37.227h-1.765V39h1.765v-1.773z" fill="#fff"/></svg><svg fill="none" viewBox="0 0 81 79" id="explore" xmlns="http://www.w3.org/2000/svg"><path fill="#fff" d="M18.136 57.197L0 74.638l4.534 4.36L22.67 61.558z"/><path fill-rule="evenodd" clip-rule="evenodd" d="M44.27 65.77c-16.229 0-29.385-13.087-29.385-29.23 0-16.145 13.156-29.232 29.385-29.232 16.228 0 29.384 13.087 29.384 29.231 0 16.144-13.156 29.232-29.384 29.232zm0 7.309c-20.286 0-36.73-16.36-36.73-36.54S23.983 0 44.27 0C64.555 0 81 16.36 81 36.54S64.555 73.078 44.27 73.078z" fill="#fff"/><path d="M42 24v25h5.995V24H42z" fill="#fff"/><path d="M57.234 34h-25v5.995h25V34z" fill="#fff"/></svg><svg fill="none" viewBox="0 0 173 40" id="logo" xmlns="http://www.w3.org/2000/svg"><path d="M2.79 32.78l-2.5-3.645h1.806l1.698 2.607 1.711-2.607h1.793L4.79 32.78l2.635 3.807H5.633l-1.84-2.79-1.832 2.79H.168L2.79 32.78zM7.6 29.135h1.726l1.516 4.225c.229.602.382 1.168.458 1.698h.054c.04-.247.115-.546.222-.897.108-.354.679-2.03 1.712-5.026h1.711l-3.187 8.443c-.58 1.55-1.545 2.325-2.897 2.325-.35 0-.692-.039-1.024-.115v-1.253c.238.054.51.08.815.08.764 0 1.3-.442 1.61-1.327l.277-.7L7.6 29.134zM23.28 39.222h-1.475v-2.635h-5.107v2.635h-1.463v-3.861h.607c.53-.76.95-1.676 1.26-2.75.314-1.077.5-2.236.559-3.476h4.528v6.226h1.092v3.861zm-2.647-3.861v-5.013h-1.604a13.644 13.644 0 01-.54 2.735c-.269.899-.599 1.658-.99 2.278h3.134zM31.272 32.848c0 1.217-.312 2.167-.936 2.85-.625.683-1.494 1.024-2.608 1.024-.696 0-1.312-.157-1.846-.472a3.114 3.114 0 01-1.233-1.354c-.288-.589-.432-1.271-.432-2.048 0-1.209.31-2.152.93-2.83.62-.679 1.494-1.018 2.622-1.018 1.078 0 1.931.348 2.56 1.044.629.692.943 1.627.943 2.804zm-5.424 0c0 1.72.636 2.58 1.907 2.58 1.258 0 1.887-.86 1.887-2.58 0-1.703-.634-2.554-1.9-2.554-.665 0-1.148.22-1.45.66-.296.44-.444 1.072-.444 1.894zM36.77 32.753v-3.618h1.476v3.618l2.871-3.618h1.671l-2.931 3.605 3.194 3.847h-1.745l-3.06-3.78v3.78h-1.475v-3.78l-3.053 3.78H31.98l3.187-3.847-2.924-3.605h1.67l2.858 3.618zM47.458 36.722c-1.16 0-2.067-.337-2.722-1.01-.652-.679-.978-1.611-.978-2.797 0-1.217.304-2.174.91-2.87.607-.697 1.44-1.045 2.5-1.045.984 0 1.76.299 2.331.896.57.598.856 1.42.856 2.466v.856H45.39c.022.723.218 1.28.586 1.671.369.387.887.58 1.557.58.44 0 .849-.04 1.226-.122.382-.085.79-.224 1.227-.417v1.287a4.86 4.86 0 01-1.173.39 7.187 7.187 0 01-1.354.115zm-.29-6.523c-.503 0-.907.16-1.213.479-.3.319-.48.784-.539 1.395h3.383c-.01-.616-.158-1.08-.445-1.395-.288-.32-.683-.479-1.186-.479zM55.16 36.722c-1.128 0-1.986-.328-2.574-.984-.584-.66-.876-1.606-.876-2.837 0-1.253.305-2.216.916-2.89.615-.674 1.503-1.011 2.662-1.011.786 0 1.493.146 2.122.438l-.478 1.274c-.67-.261-1.222-.391-1.658-.391-1.29 0-1.934.855-1.934 2.567 0 .836.16 1.464.479 1.887.323.418.795.626 1.415.626a4.05 4.05 0 002.001-.525v1.381a3.124 3.124 0 01-.91.357 5.396 5.396 0 01-1.165.108zM64.586 29.135v1.24h-2.425v6.212h-1.59v-6.212h-2.426v-1.24h6.441zM72.49 31.042c0 .88-.514 1.413-1.543 1.597v.054c.575.067 1.016.249 1.321.545.305.297.458.68.458 1.153 0 .705-.27 1.248-.808 1.63-.535.378-1.314.566-2.339.566h-3.557v-7.452h3.544c1.95 0 2.924.635 2.924 1.907zm-1.388 3.254c0-.36-.139-.613-.417-.761-.279-.153-.697-.23-1.254-.23h-1.826v2.11h1.867c1.087 0 1.63-.373 1.63-1.119zm-.195-3.12c0-.296-.117-.51-.35-.64-.23-.134-.573-.202-1.031-.202h-1.92v1.793h1.684c.53 0 .932-.068 1.206-.203.274-.139.41-.388.41-.747zM77.618 36.722c-1.159 0-2.066-.337-2.722-1.01-.651-.679-.977-1.611-.977-2.797 0-1.217.303-2.174.91-2.87.606-.697 1.44-1.045 2.5-1.045.983 0 1.76.299 2.331.896.57.598.856 1.42.856 2.466v.856H75.55c.022.723.218 1.28.586 1.671.368.387.887.58 1.556.58.44 0 .85-.04 1.227-.122.382-.085.79-.224 1.226-.417v1.287a4.857 4.857 0 01-1.172.39 7.187 7.187 0 01-1.355.115zm-.29-6.523c-.503 0-.907.16-1.212.479-.301.319-.481.784-.54 1.395h3.383c-.009-.616-.157-1.08-.445-1.395-.287-.32-.682-.479-1.185-.479zM83.898 29.135v2.992h3.511v-2.992h1.584v7.452h-1.584v-3.214h-3.51v3.214h-1.584v-7.452h1.583zM92.847 29.135v2.992h3.51v-2.992h1.584v7.452h-1.584v-3.214h-3.51v3.214h-1.584v-7.452h1.584zM104.875 36.587l-.317-1.037h-.054c-.359.453-.721.763-1.085.93-.364.161-.831.242-1.401.242-.733 0-1.305-.198-1.719-.593-.409-.395-.613-.954-.613-1.678 0-.768.285-1.347.856-1.738.57-.391 1.44-.604 2.608-.64l1.287-.04v-.398c0-.477-.113-.831-.337-1.065-.22-.238-.564-.357-1.031-.357-.382 0-.748.056-1.099.168-.35.113-.687.245-1.01.398l-.512-1.132c.404-.211.846-.37 1.327-.478a5.993 5.993 0 011.361-.169c.948 0 1.662.207 2.143.62.485.413.728 1.062.728 1.947v5.02h-1.132zm-2.359-1.078c.575 0 1.036-.16 1.382-.478.35-.324.525-.775.525-1.355v-.647l-.957.04c-.745.028-1.289.154-1.63.378-.337.22-.506.56-.506 1.018 0 .332.099.59.297.775.197.18.494.27.889.27zM108.978 36.587h-1.772l2.075-3.052c-.503-.144-.898-.4-1.185-.768-.288-.373-.432-.834-.432-1.382 0-.705.252-1.255.755-1.65.503-.4 1.19-.6 2.062-.6h3.396v7.452h-1.59v-2.87h-1.503l-1.806 2.87zm.229-5.188c0 .382.144.67.432.862.292.189.682.283 1.172.283h1.476v-2.21h-1.725c-.432 0-.766.092-1.004.276-.234.185-.351.447-.351.789zM124.544 29.135v1.24h-3.235v6.212h-1.583v-7.452h4.818zM130.642 36.587l-.317-1.037h-.054c-.359.453-.721.763-1.085.93-.364.161-.831.242-1.401.242-.732 0-1.305-.198-1.718-.593-.409-.395-.614-.954-.614-1.678 0-.768.286-1.347.856-1.738.571-.391 1.44-.604 2.608-.64l1.287-.04v-.398c0-.477-.112-.831-.337-1.065-.22-.238-.564-.357-1.031-.357-.382 0-.748.056-1.098.168a8.247 8.247 0 00-1.011.398l-.512-1.132c.404-.211.847-.37 1.327-.478a6 6 0 011.361-.169c.948 0 1.662.207 2.143.62.485.413.728 1.062.728 1.947v5.02h-1.132zm-2.359-1.078c.575 0 1.036-.16 1.382-.478.35-.324.525-.775.525-1.355v-.647l-.956.04c-.746.028-1.29.154-1.631.378-.337.22-.506.56-.506 1.018 0 .332.099.59.297.775.198.18.494.27.889.27zM140.109 36.587h-1.597v-6.212h-2.055c-.126 1.599-.297 2.848-.512 3.746-.211.898-.49 1.554-.836 1.968-.341.413-.786.62-1.334.62-.346 0-.636-.05-.869-.149v-1.24c.166.063.332.095.498.095.459 0 .818-.514 1.079-1.543.265-1.033.471-2.612.62-4.737h5.006v7.452zM145.634 36.722c-1.159 0-2.066-.337-2.722-1.01-.651-.679-.977-1.611-.977-2.797 0-1.217.303-2.174.91-2.87.606-.697 1.44-1.045 2.5-1.045.984 0 1.761.299 2.331.896.571.598.856 1.42.856 2.466v.856h-4.966c.022.723.218 1.28.586 1.671.368.387.887.58 1.557.58.44 0 .849-.04 1.226-.122a6.584 6.584 0 001.226-.417v1.287a4.854 4.854 0 01-1.172.39 7.188 7.188 0 01-1.355.115zm-.289-6.523c-.503 0-.908.16-1.213.479-.301.319-.481.784-.539 1.395h3.382c-.009-.616-.157-1.08-.444-1.395-.288-.32-.683-.479-1.186-.479zM154.111 36.722c-.943 0-1.675-.34-2.196-1.017h-.095c.063.629.095 1.01.095 1.145v3.053h-1.584V29.135h1.28c.036.139.11.471.223.997h.081c.494-.755 1.235-1.132 2.223-1.132.93 0 1.653.337 2.17 1.01.521.675.782 1.62.782 2.838 0 1.217-.265 2.167-.796 2.85-.525.683-1.253 1.024-2.183 1.024zm-.384-6.428c-.629 0-1.089.184-1.381.552-.288.369-.431.957-.431 1.766v.236c0 .907.143 1.565.431 1.974.287.404.757.606 1.408.606.548 0 .97-.224 1.267-.673.296-.45.445-1.09.445-1.92 0-.837-.149-1.468-.445-1.894-.292-.432-.723-.647-1.294-.647zM162.184 36.722c-1.159 0-2.067-.337-2.723-1.01-.651-.679-.977-1.611-.977-2.797 0-1.217.304-2.174.91-2.87.606-.697 1.44-1.045 2.5-1.045.984 0 1.761.299 2.331.896.571.598.856 1.42.856 2.466v.856h-4.966c.022.723.218 1.28.586 1.671.369.387.887.58 1.557.58.44 0 .849-.04 1.226-.122a6.616 6.616 0 001.227-.417v1.287a4.876 4.876 0 01-1.173.39 7.184 7.184 0 01-1.354.115zm-.29-6.523c-.503 0-.907.16-1.213.479-.301.319-.481.784-.539 1.395h3.383c-.009-.616-.158-1.08-.445-1.395-.288-.32-.683-.479-1.186-.479zM167.642 36.587h-1.772l2.075-3.052c-.503-.144-.899-.4-1.186-.768-.288-.373-.431-.834-.431-1.382 0-.705.251-1.255.754-1.65.504-.4 1.191-.6 2.062-.6h3.396v7.452h-1.59v-2.87h-1.502l-1.806 2.87zm.229-5.188c0 .382.144.67.431.862.292.189.683.283 1.173.283h1.475v-2.21h-1.725c-.431 0-.766.092-1.004.276-.233.185-.35.447-.35.789zM0 21.599h11.661c4.6 0 6.953-2.083 6.953-6.048v-.062c0-2.946-1.497-4.736-4.38-5.245v-.278c2.416-.462 3.679-2.036 3.679-4.597v-.077C17.913 1.805 15.714 0 11.412 0H0v21.599zM4.599 8.84V3.055h5.44c2.199 0 3.29.956 3.29 2.838v.062c0 1.913-1.091 2.885-3.29 2.885H4.6zm0 9.689v-6.881h5.581c2.417 0 3.617 1.142 3.617 3.379v.061c0 2.284-1.2 3.44-3.617 3.44H4.6zM22.946 0v21.599h4.537V0h-4.537zM36.975 22c3.664 0 6.33-1.62 7.312-4.366l.312.077c-.593 2.993.03 4.289 3.616 4.289.452 0 .904-.046 1.279-.108l.53-2.669-.78-.015c-.857-.016-1.107-.216-1.107-1.312v-7.42c0-3.672-2.463-5.431-7.717-5.431-5.58 0-8.402 2.175-8.169 5.94l4.475.37c-.187-2.484 1.091-3.61 3.6-3.61 2.246 0 3.306.817 3.306 2.684v.91l-4.427.803c-4.428.817-7.359 2.206-7.359 5.6v.046c0 2.685 1.84 4.212 5.13 4.212zm1.808-2.993c-1.527 0-2.354-.54-2.354-1.65v-.032c0-1.589 1.45-2.237 4.319-2.792l2.884-.555v.755c0 2.484-2.26 4.274-4.849 4.274zM53.841 21.599h4.537V14.07c0-3.64 1.73-5.893 4.599-5.893 2.136 0 3.196 1.095 3.196 3.193V21.6h4.537V10.29c0-3.394-2.012-5.183-5.753-5.183-3.399 0-5.722 1.48-7.093 4.566l-.312-.139c.623-1.836.842-2.93.842-4.134H53.84v16.199zM84.208 21.985c5.348 0 8.34-2.13 8.793-6.249l-4.584-.509c-.186 2.592-1.62 3.903-4.193 3.903-2.884 0-4.38-1.79-4.38-5.322v-.756c0-3.456 1.511-5.2 4.333-5.2 2.604 0 3.96 1.436 4.163 4.305l4.52-.509c-.358-4.366-3.242-6.634-8.667-6.634-5.893 0-8.996 2.854-8.996 8.316v.2c0 5.554 3.072 8.455 9.011 8.455zM97.52 21.599h4.537V14.07c0-3.64 1.715-5.878 4.599-5.878 2.135 0 3.196 1.08 3.196 3.178V21.6h4.536V10.29c0-3.394-2.026-5.183-5.752-5.183-3.43 0-5.737 1.48-7.094 4.55l-.327-.123c.608-1.728.826-3.008.842-4.535V0H97.52v21.599zM123.803 22c3.663 0 6.329-1.62 7.311-4.366l.312.077c-.593 2.993.031 4.289 3.617 4.289.452 0 .904-.046 1.278-.108l.53-2.669-.779-.015c-.858-.016-1.107-.216-1.107-1.312v-7.42c0-3.672-2.463-5.431-7.717-5.431-5.581 0-8.403 2.175-8.169 5.94l4.474.37c-.187-2.484 1.091-3.61 3.601-3.61 2.245 0 3.305.817 3.305 2.684v.91l-4.427.803c-4.428.817-7.359 2.206-7.359 5.6v.046c0 2.685 1.84 4.212 5.13 4.212zm1.808-2.993c-1.528 0-2.354-.54-2.354-1.65v-.032c0-1.589 1.45-2.237 4.318-2.792l2.884-.555v.755c0 2.484-2.26 4.274-4.848 4.274zM140.669 21.599h4.536v-6.773c0-4.227 1.325-5.785 4.786-6.032l2.23-.17-.53-3.733c-3.664.277-5.363 1.419-7.047 4.782l-.296-.139c.733-2.16.904-3.023.873-4.134h-4.552v16.199zM162.243 21.892c3.367 0 5.566-1.543 6.672-4.335l.328.108c-.53 1.697-.811 3.04-.826 3.934H173V0h-4.537v4.397c0 1.697.234 3.07.795 4.937l-.311.123c-1.107-2.777-3.321-4.381-6.704-4.381-4.677 0-7.14 2.823-7.14 8.223v.385c0 5.385 2.463 8.208 7.14 8.208zm1.715-2.777c-2.806 0-4.272-1.774-4.272-5.276v-.71c0-3.518 1.466-5.307 4.272-5.307 2.931 0 4.505 1.882 4.505 5.384v.556c0 3.486-1.574 5.353-4.505 5.353z" fill="#fff"/></svg><svg fill="none" viewBox="0 0 23 22" id="search" xmlns="http://www.w3.org/2000/svg"><path fill="#fff" d="M4.938 15.653L0 20.427l1.234 1.194 4.938-4.774z"/><path fill-rule="evenodd" clip-rule="evenodd" d="M12.097 18c-4.567 0-8.1-3.677-8.1-8s3.533-8 8.1-8c4.566 0 8.1 3.677 8.1 8s-3.534 8-8.1 8zm0 2c-5.523 0-10-4.477-10-10s4.477-10 10-10 10 4.477 10 10-4.477 10-10 10z" fill="#fff"/></svg></svg>